<?xml version="1.0" encoding="utf-8"?>
<!-- Generator: Adobe Illustrator 21.0.2, SVG Export Plug-In . SVG Version: 6.00 Build 0)  -->
<svg version="1.1" id="Layer_1" xmlns="http://www.w3.org/2000/svg" xmlns:xlink="http://www.w3.org/1999/xlink" x="0px" y="0px"
	 viewBox="0 0 198.7 67.9" style="enable-background:new 0 0 198.7 67.9;" xml:space="preserve">
<style type="text/css">
	.st0{fill:#FFFFFF;}
	.st1{fill:#FF6E00;}
</style>
<title>kmp-brand</title>
<path class="st0" d="M192.4,10.6C192.4,10.6,192.3,10.6,192.4,10.6c-0.1,0-0.2,0-0.2,0l-35.7,0c-3.9,0-8.2,3-9.6,6.7
	c-2,5.3-4.6,12.3-5.9,15.8h-4.2c-0.1,0-0.2-0.1-0.4-0.1c-1.2-0.2-1.6-0.6-1.6-1.4c0-0.3,0-0.6,0.1-0.9l4.4-11.2
	c0.3-0.7,0.5-1.4,0.5-2c0.1-0.3,0.1-0.7,0.1-1c0-3.2-2.6-5.8-5.8-5.8c0,0,0,0-0.1,0c0,0-0.1,0-0.1,0h-13.4c-2,0-3.8,0.7-5.6,2.1
	c-0.5,0.5-1,0.7-1.2,0.8c0-0.1,0-0.2,0.1-0.4c0.1-0.3,0.1-0.5,0.1-0.7c0-0.6-0.2-1.1-0.7-1.4c-0.5-0.3-1.1-0.4-1.8-0.4h-19
	c-2,0-3.8,0.7-5.5,2.2c-0.6,0.5-1,0.7-1.2,0.8c0-0.1,0-0.2,0.1-0.4c0.1-0.3,0.1-0.5,0.1-0.7c0-0.6-0.2-1.1-0.7-1.4
	c-0.5-0.3-1.1-0.4-1.8-0.4H46.8c-2,0-3.9,0.8-5.6,2.2L33,19.7c-1.7,1.4-3.4,2.1-5.2,2.1l-2.2,0c-1.2-0.1-1.5-0.4-1.5-1.4
	c0-0.3,0-0.6,0.2-1l6.4-16.1c0.1-0.4,0.2-0.8,0.2-1.1c0-0.7-0.2-1.2-0.6-1.6c-0.4-0.4-1-0.6-1.7-0.6H17c-2,0-3.4,1.1-4.2,3L0.2,36
	C0.1,36.5,0,36.8,0,37.1c0,0.7,0.2,1.2,0.6,1.6c0.4,0.4,1,0.6,1.7,0.6h11.2c2,0,3.5-1.1,4.2-3l2.2-5.5c0.7-1.8,1.9-2.6,3.6-2.6h2.2
	c1.8,0,2.8,0.6,3.4,1.9l2.8,6.9c0.6,1.6,2,2.4,4,2.4H47c0.7,0,1.3-0.1,1.8-0.4c0.4-0.3,0.7-0.8,0.7-1.4c0-0.3-0.1-0.6-0.2-0.8
	L45.3,27c-0.1-0.2-0.1-0.4-0.1-0.6c0-1.2,0.6-2.3,1.8-3.3l7.2-6.1h10.4c1.2,0.2,1.6,0.6,1.6,1.4c0,0.3,0,0.6-0.1,0.9L59.4,36
	c-0.1,0.4-0.2,0.8-0.2,1.1c0,0.7,0.2,1.2,0.6,1.6c0.4,0.4,1,0.6,1.7,0.6h11.2c2,0,3.5-1.1,4.2-3l4.4-11.2c1.6-3.7,5-6.1,5-6.1
	c1.7-1.4,3.4-2.1,5.2-2.1h1.1c1.2,0.1,1.5,0.4,1.5,1.4c0,0.3,0,0.6-0.1,0.9L87.4,36c-0.2,0.4-0.3,0.8-0.3,1.1c0,0.7,0.2,1.2,0.6,1.6
	c0.4,0.4,1,0.5,1.7,0.5h11.2c2,0,3.5-1.1,4.2-3l4.4-11.2c1.6-3.7,5-6.1,5-6.1c1.7-1.4,3.4-2,5.2-2.1c0,0,0,0,0,0h1c0,0,0,0,0,0l0,0
	c1.1,0.1,1.4,0.4,1.5,1.4c0,0.3,0,0.6-0.1,0.9l-4.5,11.2c-0.3,0.9-0.5,1.7-0.5,2.5c0,0,0,0.1,0,0.1c0,0.1,0,0.1,0,0.2
	c0,3.4,2.7,6.1,6.1,6.1c0,0,0.1,0,0.1,0h15.5l-4.5,11.8c-0.1,0.4-0.2,0.7-0.2,1.1c0,0.7,0.2,1.2,0.6,1.6c0.4,0.4,1,0.6,1.7,0.6h11.2
	c2,0,3.4-1.1,4.2-3l3.6-9.4c0,0,0,0,0,0l1-2.5h25c0.6,0,1.2-0.1,1.8-0.2c4.2-0.7,7.7-3.4,9.6-7.1c0.2-0.4,0.5-0.9,0.6-1.3l4.4-11.3
	c0.3-0.7,0.5-1.4,0.5-2.1c0-0.3,0.1-0.6,0.1-0.9C198.3,13.2,195.6,10.6,192.4,10.6z M180.2,19.2l-4.4,11.3c-0.7,1.7-1.8,2.5-3.6,2.5
	h-13.7l5.3-14.1c0.4-1.1,1.7-2,2.9-2h12.1c1.2,0.1,1.5,0.4,1.5,1.4C180.4,18.6,180.3,18.9,180.2,19.2z"/>
<g>
	<path class="st1" d="M45.9,44c0.9-0.1,2.1-0.2,3.3-0.2c2,0,3.1,0.4,3.9,1.1c0.8,0.8,1,2.1,0.3,3.9c-0.7,2-2,3.4-3.3,4.2
		c-1.4,0.9-3.3,1.4-5.3,1.4c-1.2,0-2.1-0.1-2.6-0.2L45.9,44z M45.1,52.5c0.2,0,0.5,0,0.8,0c2.1,0,4-1.2,4.9-3.7
		c0.8-2.2,0-3.3-2.1-3.3c-0.5,0-0.9,0-1.1,0.1L45.1,52.5z"/>
	<path class="st1" d="M56.7,44c0.8-0.1,2-0.2,3.2-0.2c1.6,0,2.6,0.2,3.1,0.8c0.4,0.5,0.5,1.2,0.2,2.2c-0.5,1.3-1.8,2.3-2.8,2.6l0,0
		c0.6,0.3,0.8,1,0.7,2c-0.1,1.2-0.3,2.5-0.2,2.9h-2.4c-0.1-0.3,0-1.1,0.2-2.4c0.2-1.3-0.1-1.7-1.1-1.7h-0.7l-1.5,4.1h-2.3L56.7,44z
		 M57.4,48.5h0.9c1.2,0,2.1-0.6,2.4-1.5c0.4-1-0.1-1.4-1.2-1.5c-0.6,0-0.9,0-1.1,0.1L57.4,48.5z"/>
	<path class="st1" d="M68.3,43.8l-3.8,10.5h-2.4l3.8-10.5H68.3z"/>
	<path class="st1" d="M69,54.3l0.5-10.5h2.6l-0.3,4.4c-0.1,1.2-0.2,2.4-0.4,3.7h0c0.7-1.3,1.5-2.5,2.3-3.7l3-4.5h2.5l-7.3,10.5H69z"
		/>
	<path class="st1" d="M84.3,49.9h-3.9l-0.9,2.5h4.3l-0.7,1.9h-6.7l3.8-10.5h6.5L86,45.8h-4.1l-0.8,2.2H85L84.3,49.9z"/>
	<path class="st1" d="M89.9,45.8h-2.8l0.7-2h8l-0.7,2h-2.9l-3.1,8.5h-2.4L89.9,45.8z"/>
	<path class="st1" d="M97.1,44c0.8-0.1,2-0.2,3.2-0.2c1.6,0,2.6,0.2,3.1,0.8c0.4,0.5,0.5,1.2,0.2,2.2c-0.5,1.3-1.8,2.3-2.8,2.6l0,0
		c0.6,0.3,0.8,1,0.7,2c-0.1,1.2-0.3,2.5-0.2,2.9h-2.4c-0.1-0.3,0-1.1,0.2-2.4c0.2-1.3-0.1-1.7-1.1-1.7h-0.7l-1.5,4.1h-2.3L97.1,44z
		 M97.8,48.5h0.9c1.2,0,2.1-0.6,2.4-1.5c0.4-1-0.1-1.4-1.2-1.5c-0.6,0-0.9,0-1.1,0.1L97.8,48.5z"/>
	<path class="st1" d="M106.1,51.6l-1.7,2.7h-2.5l7-10.5h3.1l-0.6,10.5h-2.5l0.2-2.7H106.1z M109.4,49.8l0.2-2.2c0-0.6,0.1-1.4,0.2-2
		h0c-0.4,0.6-0.8,1.4-1.2,2l-1.4,2.2H109.4z"/>
	<path class="st1" d="M119.1,43.8l-3.8,10.5h-2.4l3.8-10.5H119.1z"/>
	<path class="st1" d="M117.3,54.3l3.8-10.5h2.8l0.8,3.8c0.2,1.1,0.4,2.4,0.4,3.6h0c0.3-1.4,0.8-2.8,1.4-4.4l1.1-3.1h2.2L126,54.3
		h-2.5l-0.8-4c-0.2-1.1-0.4-2.5-0.5-3.7l-0.1,0c-0.4,1.4-0.9,2.9-1.6,4.6l-1.1,3.2H117.3z"/>
</g>
<g>
	<path class="st1" d="M43.8,65.3c0.5,0.3,1.4,0.6,2.4,0.6c1.1,0,1.8-0.4,2-1.1c0.2-0.6-0.1-1-1.2-1.5c-1.5-0.6-2.3-1.5-1.7-3
		c0.6-1.8,2.6-3.1,5-3.1c1.2,0,1.9,0.2,2.4,0.5l-1.2,1.9c-0.3-0.2-1-0.5-2-0.5s-1.7,0.5-1.9,1c-0.2,0.7,0.2,0.9,1.4,1.5
		c1.6,0.7,2.1,1.6,1.6,3.1c-0.6,1.7-2.5,3.2-5.3,3.2c-1.2,0-2.2-0.3-2.7-0.6L43.8,65.3z"/>
	<path class="st1" d="M62.5,62.5c-1.2,3.4-4,5.4-7,5.4c-3.1,0-4-2.3-2.9-5.2c1.1-3.1,3.9-5.4,7-5.4C62.6,57.2,63.5,59.6,62.5,62.5z
		 M55,62.6c-0.7,2-0.3,3.4,1.3,3.4c1.6,0,3-1.5,3.8-3.5c0.7-1.9,0.4-3.4-1.2-3.4C57.2,59.1,55.7,60.6,55,62.6z"/>
	<path class="st1" d="M65.8,57.4h2.3l-3,8.4h4.1l-0.7,2h-6.4L65.8,57.4z"/>
	<path class="st1" d="M75.5,57.4l-2.2,5.9C72.7,65.1,73,66,74.2,66c1.2,0,2.2-0.9,2.9-2.7l2.2-5.9h2.3l-2.1,5.8
		c-1.2,3.2-3.3,4.7-6,4.7c-2.6,0-3.6-1.4-2.4-4.7l2.1-5.8H75.5z"/>
	<path class="st1" d="M84.9,59.4h-2.8l0.7-2h7.9l-0.7,2h-2.8l-3,8.4h-2.3L84.9,59.4z"/>
	<path class="st1" d="M94.4,57.4l-3.8,10.3h-2.3L92,57.4H94.4z"/>
	<path class="st1" d="M104,62.5c-1.2,3.4-4,5.4-7,5.4c-3.1,0-4-2.3-2.9-5.2c1.1-3.1,3.9-5.4,7-5.4C104.2,57.2,105,59.6,104,62.5z
		 M96.5,62.6c-0.7,2-0.3,3.4,1.3,3.4c1.6,0,3-1.5,3.8-3.5c0.7-1.9,0.4-3.4-1.2-3.4C98.7,59.1,97.2,60.6,96.5,62.6z"/>
	<path class="st1" d="M103.6,67.7l3.8-10.3h2.7l0.8,3.8c0.2,1.1,0.4,2.4,0.4,3.5h0c0.3-1.4,0.8-2.8,1.4-4.3l1.1-3h2.1l-3.8,10.3
		h-2.4l-0.8-4c-0.2-1.1-0.4-2.4-0.5-3.6l-0.1,0c-0.4,1.4-0.9,2.8-1.5,4.5l-1.1,3.1H103.6z"/>
	<path class="st1" d="M115.1,65.3c0.5,0.3,1.4,0.6,2.4,0.6c1.1,0,1.8-0.4,2-1.1c0.2-0.6-0.1-1-1.2-1.5c-1.5-0.6-2.3-1.5-1.7-3
		c0.6-1.8,2.6-3.1,5-3.1c1.2,0,1.9,0.2,2.4,0.5l-1.2,1.9c-0.3-0.2-1-0.5-2-0.5c-1,0-1.7,0.5-1.9,1c-0.2,0.7,0.2,0.9,1.4,1.5
		c1.6,0.7,2.1,1.6,1.6,3.1c-0.6,1.7-2.5,3.2-5.3,3.2c-1.2,0-2.2-0.3-2.7-0.6L115.1,65.3z"/>
</g>
</svg>
